<svg xmlns="http://www.w3.org/2000/svg" viewBox="0 0 52 85" x="0px" y="0px"><path fill="#000000" d="M698.223016,452 L696,452 C694.542851,452 693.176693,451.610423 692,450.929742 L692,469 C692,471.209139 693.790861,473 696,473 L698.223016,473 C699.132475,468.992023 702.716825,466 707,466 C711.970563,466 716,470.029437 716,475 C716,479.970563 711.970563,484 707,484 C702.716825,484 699.132475,481.007977 698.223016,477 L696,477 C691.581722,477 688,473.418278 688,469 L688,431 C688,428.790861 686.209139,427 684,427 L681.776984,427 C680.867525,431.007977 677.283175,434 673,434 C668.029437,434 664,429.970563 664,425 C664,420.029437 668.029437,416 673,416 C677.283175,416 680.867525,418.992023 681.776984,423 L684,423 C688.418278,423 692,426.581722 692,431 L692,444 C692,446.209139 693.790861,448 696,448 L698.223016,448 C699.132475,443.992023 702.716825,441 707,441 C711.970563,441 716,445.029437 716,450 C716,454.970563 711.970563,459 707,459 C702.716825,459 699.132475,456.007977 698.223016,452 Z M673,430 C675.761424,430 678,427.761424 678,425 C678,422.238576 675.761424,420 673,420 C670.238576,420 668,422.238576 668,425 C668,427.761424 670.238576,430 673,430 Z M707,480 C709.761424,480 712,477.761424 712,475 C712,472.238576 709.761424,470 707,470 C704.238576,470 702,472.238576 702,475 C702,477.761424 704.238576,480 707,480 Z M707,455 C709.761424,455 712,452.761424 712,450 C712,447.238576 709.761424,445 707,445 C704.238576,445 702,447.238576 702,450 C702,452.761424 704.238576,455 707,455 Z" transform="translate(-664 -416)"/></svg>