<svg
                  xmlns="http://www.w3.org/2000/svg"
                  width="25"
                  height="24"
                  viewBox="0 0 25 24"
                  fill="none"
                >
                  <path
                    fill-rule="evenodd"
                    clip-rule="evenodd"
                    d="M2.10742 4.64331C2.10742 3.53874 3.00285 2.64331 4.10742 2.64331H8.60742C9.71199 2.64331 10.6074 3.53874 10.6074 4.64331V9.14331C10.6074 10.2479 9.71199 11.1433 8.60742 11.1433H4.10742C3.00285 11.1433 2.10742 10.2479 2.10742 9.14331V4.64331ZM5.60742 4.14331C4.50285 4.14331 3.60742 5.03874 3.60742 6.14331V7.64331C3.60742 8.74788 4.50285 9.64331 5.60742 9.64331H7.10742C8.21199 9.64331 9.10742 8.74788 9.10742 7.64331V6.14331C9.10742 5.03874 8.21199 4.14331 7.10742 4.14331H5.60742Z"
                    fill="white"
                  />
                  <path
                    fill-rule="evenodd"
                    clip-rule="evenodd"
                    d="M13.8339 3.61996C14.1197 2.55303 15.2164 1.91986 16.2834 2.20575L20.63 3.37043C21.697 3.65632 22.3301 4.75299 22.0442 5.81992L20.8795 10.1666C20.5937 11.2335 19.497 11.8667 18.4301 11.5808L14.0834 10.4161C13.0165 10.1302 12.3833 9.03356 12.6692 7.96663L13.8339 3.61996ZM17.344 4.04287C16.2771 3.75698 15.1804 4.39015 14.8945 5.45708L14.5063 6.90597C14.2204 7.9729 14.8536 9.06957 15.9205 9.35546L17.3694 9.74369C18.4363 10.0296 19.533 9.3964 19.8189 8.32947L20.2071 6.88058C20.493 5.81365 19.8598 4.71698 18.7929 4.43109L17.344 4.04287Z"
                    fill="white"
                  />
                  <path
                    fill-rule="evenodd"
                    clip-rule="evenodd"
                    d="M2.10742 15.6433C2.10742 14.5387 3.00285 13.6433 4.10742 13.6433H8.60742C9.71199 13.6433 10.6074 14.5387 10.6074 15.6433V20.1433C10.6074 21.2479 9.71199 22.1433 8.60742 22.1433H4.10742C3.00285 22.1433 2.10742 21.2479 2.10742 20.1433V15.6433ZM5.60742 15.1433C4.50285 15.1433 3.60742 16.0387 3.60742 17.1433V18.6433C3.60742 19.7479 4.50285 20.6433 5.60742 20.6433H7.10742C8.21199 20.6433 9.10742 19.7479 9.10742 18.6433V17.1433C9.10742 16.0387 8.21199 15.1433 7.10742 15.1433H5.60742Z"
                    fill="white"
                  />
                  <path
                    fill-rule="evenodd"
                    clip-rule="evenodd"
                    d="M13.1074 15.6433C13.1074 14.5387 14.0029 13.6433 15.1074 13.6433H19.6074C20.712 13.6433 21.6074 14.5387 21.6074 15.6433V20.1433C21.6074 21.2479 20.712 22.1433 19.6074 22.1433H15.1074C14.0029 22.1433 13.1074 21.2479 13.1074 20.1433V15.6433ZM16.6074 15.1433C15.5029 15.1433 14.6074 16.0387 14.6074 17.1433V18.6433C14.6074 19.7479 15.5029 20.6433 16.6074 20.6433H18.1074C19.212 20.6433 20.1074 19.7479 20.1074 18.6433V17.1433C20.1074 16.0387 19.212 15.1433 18.1074 15.1433H16.6074Z"
                    fill="white"
                  />
                </svg>