<svg xmlns="http://www.w3.org/2000/svg" width="100%" viewBox="0 0 120 122" fill="none"><g clip-path="url(#clip0_1_1184)"><path d="M118.565 43.2587C112.922 54.5672 101.829 61.9475 89.8185 65.1402C83.2716 66.8791 76.4622 67.5238 69.7055 67.6028C65.6984 67.6498 57.4867 68.7418 55.6217 63.8784C54.0297 59.7286 58.556 54.6237 62.0704 53.0998C66.1882 51.312 71.6416 52.7927 73.3789 57.1795C75.1187 61.5758 72.7588 66.4169 69.2176 69.1177C64.359 72.8303 57.5049 74.1663 51.6477 75.3527C36.3133 78.4553 20.5815 78.2832 5.01437 78.0771C3.81496 78.0614 2.83636 76.6585 3.55519 75.5669C5.99308 71.8747 9.01602 68.9552 12.6955 66.5034C13.2098 67.4127 13.7337 68.3193 14.248 69.2286C11.4994 70.5984 7.58299 72.6234 5.95083 75.3388C4.5724 77.6286 6.26747 78.0836 8.08998 79.0713C9.69751 79.943 11.3146 80.8122 12.9221 81.6839C14.8508 82.725 13.137 85.7074 11.2197 84.6326C8.56681 83.1574 5.40854 81.8737 3.02659 79.999C1.79076 79.0277 1.13352 77.9473 1.45294 76.3754C1.87852 74.2847 4.21053 72.4085 5.72835 71.0773C7.83954 69.2347 10.1803 67.7341 12.6955 66.5034C14.509 65.6088 15.9466 68.1146 14.248 69.2286C11.0357 71.3458 8.5279 74.0149 6.45555 77.2415C5.97118 76.4059 5.4868 75.5704 4.99638 74.7313C17.2912 74.9816 29.6457 75.2262 41.8899 73.8199C48.3805 73.0716 54.9223 71.8857 61.1613 69.9126C64.4944 68.8561 68.1902 67.3805 70.1159 64.2545C72.1173 61.0112 71.7192 56.5516 67.733 55.2089C63.9611 53.9416 60.3571 56.5417 58.7482 59.8586C56.045 65.4199 64.2804 64.817 67.3438 64.8696C73.6981 64.9853 80.0855 64.6529 86.3266 63.3739C98.9768 60.776 110.914 54.1247 117.088 42.398C117.597 41.4189 119.058 42.2787 118.565 43.2587Z" fill="url(#paint0_linear_1_1184)"/></g><defs><linearGradient id="paint0_linear_1_1184" x1="0.000244141" y1="78.462" x2="84.1464" y2="117.745" gradientUnits="userSpaceOnUse"><stop stop-color="#A04CFF"/><stop offset="0.354976" stop-color="#5667FF"/><stop offset="1" stop-color="#FF6BBB"/></linearGradient><clipPath id="clip0_1_1184"><rect width="85.1496" height="90.5988" fill="white" transform="matrix(0.866025 0.5 0.5 -0.866025 0 78.4609)"/></clipPath></defs></svg>