<svg
              xmlns="http://www.w3.org/2000/svg"
              width="24"
              height="24"
              viewBox="0 0 24 24"
              fill="none"
            >
              <path
                fill-rule="evenodd"
                clip-rule="evenodd"
                d="M11.8445 21.662C8.15273 21.662 5 21.0875 5 18.7868C5 16.486 8.13273 14.362 11.8445 14.362C15.5364 14.362 18.6891 16.4654 18.6891 18.7662C18.6891 21.066 15.5564 21.662 11.8445 21.662Z"
                stroke="white"
                stroke-width="1.5"
                stroke-linecap="round"
                stroke-linejoin="round"
              />
              <path
                fill-rule="evenodd"
                clip-rule="evenodd"
                d="M11.8372 11.1738C14.26 11.1738 16.2236 9.21012 16.2236 6.78739C16.2236 4.36466 14.26 2.40012 11.8372 2.40012C9.41452 2.40012 7.44998 4.36466 7.44998 6.78739C7.4418 9.20193 9.3918 11.1656 11.8063 11.1738C11.8172 11.1738 11.8272 11.1738 11.8372 11.1738Z"
                stroke="white"
                stroke-width="1.5"
                stroke-linecap="round"
                stroke-linejoin="round"
              />
</svg>