<svg xmlns="http://www.w3.org/2000/svg" viewBox="0 0 24 24"><path d="M22.14,7.34A1,1,0,0,0,21,8.17l-1.34,8a1,1,0,0,1-1,.83H9a3,3,0,0,1-3-3V4A3,3,0,0,0,3,1H2A1,1,0,0,0,2,3H3A1,1,0,0,1,4,4V14a5,5,0,0,0,2.9,4.52,3,3,0,1,0,5.42.48h2.36a3,3,0,1,0,5.46-.39,3,3,0,0,0,1.48-2.12l1.34-8A1,1,0,0,0,22.14,7.34ZM10.5,20a1,1,0,1,1-1-1A1,1,0,0,1,10.5,20Zm7,1a1,1,0,1,1,1-1A1,1,0,0,1,17.5,21Zm-6.63-8.71L12.16,11,10.87,9.71a1,1,0,0,1,0-1.42,1,1,0,0,1,1.41,0l1.3,1.3,1.29-1.3a1,1,0,0,1,1.41,0,1,1,0,0,1,0,1.42L15,11l1.29,1.29a1,1,0,0,1-1.41,1.42l-1.29-1.3-1.3,1.3a1,1,0,0,1-1.41-1.42Z"/></svg>