 <svg xmlns="http://www.w3.org/2000/svg" width="48" height="64" viewBox="0 0 48 64" fill="none"> <path   d="M23.7366 0.449564C23.8668 0.784736 23.6417 1.09126 23.457 1.35055C22.1504 3.20255 21.1231 5.27366 20.7135 7.50027C20.5532 7.95727 20.5885 8.29784 20.7135 8.33578C23.2493 8.11314 26.1097 8.13881 28.6062 8.67207C33.1489 9.58663 37.3947 11.885 40.6577 15.1713C43.9114 18.4237 46.195 22.6381 47.119 27.1469C48.1435 32.0288 47.571 37.2255 45.522 41.7724C41.1774 51.0572 33.8531 58.9107 24.8913 63.889C24.6022 64.0233 24.1856 64.0286 23.9875 63.7411C23.7542 63.4398 23.8506 63.011 24.0812 62.7371C25.2902 61.0504 26.1341 59.1115 26.5928 57.0897C26.681 56.6705 26.8017 56.2458 26.765 55.8143C26.6172 55.6216 26.3729 55.68 26.1654 55.6869C21.8152 56.1223 17.3389 55.3449 13.4082 53.4237C9.19789 51.3952 5.62538 48.079 3.263 44.0478C1.07452 40.3395 -0.0760747 36.0208 0.0039053 31.7126C0.0187853 27.7588 1.09759 23.8374 2.9972 20.3763C7.41917 11.8865 14.362 4.72236 22.7448 0.0941181C23.0962 -0.101182 23.6159 0.0438981 23.7366 0.449564ZM22.5004 22.7818C19.913 23.1293 17.5262 24.6489 16.0771 26.8143C15.0961 28.3016 14.5017 30.0682 14.514 31.8566C14.4409 34.2527 15.396 36.653 17.0514 38.3789C18.4977 39.9366 20.5072 40.9514 22.6144 41.2228C24.7596 41.5065 26.9998 41.0045 28.8166 39.8252C30.6632 38.653 32.0703 36.8022 32.6999 34.7059C33.8818 31.0668 32.4652 26.8035 29.3824 24.5554C27.4462 23.0819 24.9074 22.4277 22.5004 22.7818Z"   fill="url(#paint0_linear_43540_7512)" /> <defs>   <linearGradient     id="paint0_linear_43540_7512"     x1="2380.8"     y1="0.00808907"     x2="2380.8"     y2="6396.98"     gradientUnits="userSpaceOnUse"   >     <stop stop-color="#FF9900" />     <stop offset="1" stop-color="#F05A22" />   </linearGradient> </defs></svg>