<svg xmlns="http://www.w3.org/2000/svg" width="64" height="64" viewBox="0 0 64 64" fill="none"> <path   d="M32 0.75C14.7411 0.75 0.75 14.7411 0.75 32C0.75 49.2589 14.7411 63.25 32 63.25C49.2589 63.25 63.25 49.2589 63.25 32C63.25 14.7411 49.2589 0.75 32 0.75ZM42.6615 35.3919L32.0959 43.0279C31.7125 47.1542 28.1834 50.3836 23.932 50.3836C22.0644 50.3848 20.252 49.7504 18.7929 48.5848C17.3337 47.4191 16.3147 45.7915 15.9035 43.9697L10.3445 41.7609V31.4897L19.7375 35.2461C21.2034 34.3711 22.85 33.979 24.7666 34.1473L31.6224 24.4145C31.6675 18.4491 36.5951 13.6164 42.639 13.6164C48.7168 13.6164 53.6444 18.5052 53.6556 24.493C53.6555 30.525 48.7166 35.3919 42.6615 35.3919Z"   fill="#5667FF" /> <path   d="M23.9319 36.2441C23.4918 36.2427 23.0529 36.2916 22.6239 36.3899L25.1385 37.399C25.7221 37.626 26.2548 37.9666 26.7057 38.4011C27.1566 38.8356 27.5168 39.3552 27.7654 39.9299C28.014 40.5046 28.146 41.123 28.1538 41.7491C28.1616 42.3752 28.0451 42.9966 27.8109 43.5774C27.5736 44.1618 27.2233 44.6936 26.7802 45.1424C26.337 45.5913 25.8097 45.9483 25.2284 46.1931C24.6471 46.4378 24.0232 46.5655 23.3924 46.5688C22.7617 46.5721 22.1365 46.451 21.5527 46.2124C20.5717 45.8311 19.5682 45.4162 18.5872 45.0462C19.0792 45.9977 19.8157 46.8009 20.721 47.3734C21.6264 47.9459 22.6678 48.2669 23.7383 48.3036C24.8088 48.3402 25.8698 48.0911 26.8121 47.5819C27.7545 47.0726 28.5442 46.3216 29.1001 45.4061C29.6561 44.4905 29.9582 43.4434 29.9754 42.3724C29.9926 41.3014 29.7242 40.2452 29.198 39.3122C28.6717 38.3793 27.9065 37.6033 26.981 37.0641C26.0555 36.5249 25.003 36.2419 23.9319 36.2441ZM42.6499 17.2045C38.5568 17.2045 35.2529 20.4787 35.2529 24.5045C35.2529 28.5524 38.568 31.8045 42.6499 31.8045C46.698 31.8157 50.0249 28.5527 50.0132 24.5045C50.0133 20.4787 46.6982 17.2045 42.6499 17.2045ZM42.633 28.8881C41.768 28.8789 40.925 28.6139 40.2102 28.1265C39.4954 27.6392 38.9407 26.9513 38.6161 26.1494C38.2914 25.3475 38.2113 24.4674 38.3857 23.6201C38.5602 22.7727 38.9814 21.9959 39.5964 21.3875C40.2114 20.779 40.9927 20.3661 41.8418 20.2007C42.691 20.0353 43.5701 20.1249 44.3685 20.4581C45.1669 20.7913 45.8489 21.3533 46.3285 22.0732C46.8082 22.7932 47.0642 23.639 47.0642 24.5041C47.0621 25.0832 46.9457 25.6562 46.7217 26.1902C46.4977 26.7242 46.1705 27.2088 45.7588 27.616C45.3472 28.0233 44.8592 28.3454 44.3228 28.5637C43.7864 28.7819 43.2122 28.8922 42.6332 28.8881H42.633Z"   fill="#5667FF" /></svg>