<svg xmlns="http://www.w3.org/2000/svg" width="64" height="64" viewBox="0 0 64 64" fill="none"><path d="M21.1479 5.655C24.5199 6.979 27.7879 8.735 30.8559 10.871C31.1913 11.1054 31.5907 11.2312 31.9999 11.2312C32.4091 11.2312 32.8085 11.1054 33.1439 10.871C36.2159 8.731 39.4839 6.975 42.8519 5.651C43.6199 5.351 44.1239 4.607 44.1199 3.779C44.1184 3.37561 43.9944 2.98218 43.7644 2.65077C43.5344 2.31936 43.2093 2.06558 42.8319 1.923C36.0879 -0.641 27.9079 -0.641 21.1679 1.923C20.3999 2.215 19.8839 2.955 19.8799 3.779C19.8759 4.603 20.3799 5.351 21.1479 5.655Z" fill="#87D036"/><path d="M50.132 5.663C49.496 5.227 48.676 5.191 48 5.579C44.2354 7.75161 40.6375 10.201 37.236 12.907C37.012 13.0846 36.829 13.3084 36.6992 13.5631C36.5694 13.8178 36.496 14.0974 36.484 14.383C36.456 14.963 36.684 15.523 37.1 15.919C44.172 22.659 53.98 43.315 56.224 52.823C51.344 44.575 40.476 25.163 33.36 18.527C32.596 17.811 31.4 17.811 30.632 18.527C23.508 25.167 12.672 44.595 7.792 52.847C10.036 43.343 19.816 22.663 26.892 15.919C27.312 15.519 27.536 14.959 27.512 14.383C27.488 13.807 27.216 13.267 26.764 12.907C23.352 10.195 19.732 7.731 16 5.579C15.332 5.195 14.504 5.231 13.864 5.663C5.184 11.647 0 21.487 0 31.991C0 39.667 2.76 47.067 7.796 52.847C13.816 59.927 22.636 63.991 32 63.991C41.364 63.991 50.184 59.927 56.228 52.823C61.24 47.071 64 39.671 64 31.991C64 21.487 58.816 11.647 50.132 5.663Z" fill="#87D036"/></svg>